# xmcd
#
# Track frame offsets:
#	150
#	17416
#	31635
#	47553
#	68935
#	85794
#	104537
#	125182
#	142870
#	161136
#	180058
#	199124
#	217518
#	234833
#	252383
#
# Disc length: 3737 seconds
#
# Revision: 1
# Processed by: cddbd v1.5.2PL0 Copyright (c) Steve Scherf et al.
# Submitted via: audiograbber 1.83.01
#
DISCID=b70e970f
DTITLE=Various Artist - sc8847
DYEAR=1900
DGENRE=country
TTITLE0=johnny and rosanne cash - september when it comes
TTITLE1=joe nichols - cool to be a fool
TTITLE2=hank williams jr - i'm one of you
TTITLE3=sara evans - perfect
TTITLE4=jeff bates - rainbow man
TTITLE5=toby keith - I love this bar
TTITLE6=alan jackson - remember when
TTITLE7=brooks and dunn - you can't take the honky-tonk out of the girl
TTITLE8=craig morgan - every friday afternoon
TTITLE9=wynonna - heaven help me
TTITLE10=ryan tyler - run, run, run
TTITLE11=shelby lynne - telephone
TTITLE12=kellie coffey - texas plates
TTITLE13=brad paisley - little moments
TTITLE14=reba mcentire - i'm gonna take that mountain
EXTD=
EXTT0=
EXTT1=
EXTT2=
EXTT3=
EXTT4=
EXTT5=
EXTT6=
EXTT7=
EXTT8=
EXTT9=
EXTT10=
EXTT11=
EXTT12=
EXTT13=
EXTT14=
PLAYORDER=
